<svg xmlns="http://www.w3.org/2000/svg" viewBox="0 0 32 32" width="32" height="32">
  <rect width="32" height="32" rx="7" fill="#6d28d9"/>
  <path d="M4 19.5 L16 13.5 L28 19.5 L16 25.5 Z" stroke="white" stroke-width="1.2" stroke-linejoin="round" fill="none"/>
  <path d="M4 19.5 L4 22.5 L16 28.5 L16 25.5 Z" stroke="white" stroke-width="1.2" stroke-linejoin="round" fill="white" fill-opacity="0.2"/>
  <path d="M28 19.5 L28 22.5 L16 28.5 L16 25.5 Z" stroke="white" stroke-width="1.2" stroke-linejoin="round" fill="none" opacity="0.45"/>
  <path d="M8 12 L16 8 L24 12 L16 16 Z" stroke="white" stroke-width="1.2" stroke-linejoin="round" fill="none"/>
  <path d="M8 12 L8 14.5 L16 18.5 L16 16 Z" stroke="white" stroke-width="1.2" stroke-linejoin="round" fill="white" fill-opacity="0.2"/>
  <path d="M24 12 L24 14.5 L16 18.5 L16 16 Z" stroke="white" stroke-width="1.2" stroke-linejoin="round" fill="none" opacity="0.45"/>
  <path d="M11 5.5 L16 3 L21 5.5 L16 8 Z" stroke="white" stroke-width="1.2" stroke-linejoin="round" fill="none"/>
  <path d="M11 5.5 L11 7.5 L16 10 L16 8 Z" stroke="white" stroke-width="1.2" stroke-linejoin="round" fill="white" fill-opacity="0.2"/>
  <path d="M21 5.5 L21 7.5 L16 10 L16 8 Z" stroke="white" stroke-width="1.2" stroke-linejoin="round" fill="none" opacity="0.45"/>
</svg>